<svg width="20" height="16" viewBox="0 0 20 16" fill="none" xmlns="http://www.w3.org/2000/svg">
<path fill-rule="evenodd" clip-rule="evenodd" d="M19.4161 6.69447H5.5683C5.19291 6.69447 5.02607 6.23566 5.27633 5.9854L9.2805 1.98123C9.53076 1.73097 9.53076 1.35558 9.2805 1.10532L8.36288 0.187696C8.11262 -0.0625652 7.73723 -0.0625652 7.48697 0.187696L0.187696 7.52868C-0.0625652 7.77894 -0.0625652 8.15433 0.187696 8.40459L7.48697 15.7039C7.73723 15.9541 8.11262 15.9541 8.36288 15.7039L9.23879 14.8279C9.48905 14.5777 9.48905 14.2023 9.23879 13.952L5.23462 9.94786C4.98436 9.65589 5.1512 9.19708 5.52659 9.19708H19.3743C19.708 9.19708 20 8.94682 20 8.61314V7.36184C20 7.02815 19.7497 6.69447 19.4161 6.69447Z" fill="#333333"/>
</svg>
